<svg xmlns="http://www.w3.org/2000/svg" xmlns:xlink="http://www.w3.org/1999/xlink" width="1920" height="1089" viewBox="0 0 1920 1089"><defs><clipPath id="a"><rect width="1920" height="1089" fill="#fff"/></clipPath><linearGradient id="b" x1="0.396" y1="0.201" x2="0.587" y2="0.661" gradientUnits="objectBoundingBox"><stop offset="0" stop-color="#444"/><stop offset="1" stop-color="#0e0e0e"/></linearGradient></defs><g clip-path="url(#a)"><path d="M893.152,3.017a5,5,0,0,1,6.695,0l883.484,796.269a5,5,0,0,1-3.347,8.714H13.016a5,5,0,0,1-3.347-8.714Z" transform="translate(844.696) rotate(89)" opacity="0.05" fill="url(#b)"/><path d="M1156.116,3.111a5,5,0,0,1,6.768,0L2309.558,1057.319a5,5,0,0,1-3.384,8.681H12.826a5,5,0,0,1-3.384-8.681Z" transform="translate(749.477 -222.125) rotate(89)" fill="url(#b)"/></g></svg>